8888888888                888      8888888888                       
888                       888      888                              
888                       888      888                              
8888888  .d88b.   .d88b.  888      8888888 888d888 .d88b.   .d88b.  
888     d8P  Y8b d8P  Y8b 888      888     888P"  d8P  Y8b d8P  Y8b 
888     88888888 88888888 888      888     888    88888888 88888888 
888     Y8b.     Y8b.     888      888     888    Y8b.     Y8b.     
888      "Y8888   "Y8888  888      888     888     "Y8888   "Y8888  


################Credits To Feel Free, Pitic & Tony################


Genre:Comedy | Romance
Language:English
IMDb: 
http://www.imdb.com/title/tt1621045
Source:1080p.BluRay.X264-BLOW Thanks
Encoder:Tony


Format : MPEG-4
Format profile : Base Media
Codec ID : isom
File size : 2.91 GiB
Duration : 2h 2mn
Overall bit rate mode : Variable
Overall bit rate : 3 412 Kbps

Video
ID : 1
Format : AVC
Format/Info : Advanced Video Codec
Format profile : High@L4.1
Format settings, CABAC : Yes
Format settings, ReFrames : 3 frames
Codec ID : avc1
Codec ID/Info : Advanced Video Coding
Duration : 2h 2mn
Bit rate : 3 000 Kbps
Maximum bit rate : 15.5 Mbps
Width : 1 920 pixels
Height : 800 pixels
Display aspect ratio : 2.40:1
Frame rate mode : Constant
Frame rate : 23.976 fps
Color space : YUV
Chroma subsampling : 4:2:0
Bit depth : 8 bits
Scan type : Progressive
Bits/(Pixel*Frame) : 0.081
Stream size : 2.53 GiB (87%)
Writing library : x264

Audio
ID : 2
Format : AAC
Format/Info : Advanced Audio Codec
Format profile : LC
Codec ID : 40
Duration : 2h 2mn
Bit rate mode : Variable
Bit rate : 439 Kbps
Maximum bit rate : 525 Kbps
Channel(s) : 6 channels
Channel positions : Front: L C R, Side: L R, LFE
Sampling rate : 48.0 KHz
Compression mode : Lossy
Stream size : 383 MiB (13%)

Plot:
Four friends conspire to turn the tables on their women when they discover the ladies have been using Steve Harvey's relationship advice against them.


Screen Shots:
                                              
http://img641.imageshack.us/img641/1121/vlcsnap2012081119h11m04.png
 
http://img11.imageshack.us/img11/3206/vlcsnap2012081119h11m17.png
 
http://img88.imageshack.us/img88/1608/vlcsnap2012081119h11m33.png


################Credits To Feel Free, Pitic & Tony################


8888888888                888      8888888888                       
888                       888      888                              
888                       888      888                              
8888888  .d88b.   .d88b.  888      8888888 888d888 .d88b.   .d88b.  
888     d8P  Y8b d8P  Y8b 888      888     888P"  d8P  Y8b d8P  Y8b 
888     88888888 88888888 888      888     888    88888888 88888888 
888     Y8b.     Y8b.     888      888     888    Y8b.     Y8b.     
888      "Y8888   "Y8888  888      888     888     "Y8888   "Y8888  